<svg width="128" height="128" viewBox="0 0 128 128" fill="none" xmlns="http://www.w3.org/2000/svg">
<rect width="128" height="128" fill="white"/>
<rect x="11.446" y="74.9445" width="24.5341" height="30.3015" rx="7" transform="rotate(-9.71748 11.446 74.9445)" fill="#5B5A5F"/>
<rect x="68.6544" y="64.6176" width="23.7065" height="30.9175" rx="7" transform="rotate(-7.69992 68.6544 64.6176)" fill="#5B5A5F"/>
<path d="M14.7231 42.5303C14.5629 36.5514 18.8299 31.3672 24.7281 30.375L62.5134 24.0186C68.2589 23.0521 73.8685 26.3522 75.8148 31.8437L79.2524 41.5431L15.0098 53.2245L14.7231 42.5303Z" fill="#717177"/>
<path d="M11.5678 57.0262C12.6769 54.0158 15.3045 51.8234 18.4649 51.2716L76.6392 41.1142C79.7567 40.5699 82.931 41.7029 84.9992 44.0982L88.1208 47.7135C88.931 48.6518 89.4774 49.7884 89.7043 51.0071L91.3748 59.9795L94.1151 74.6986C94.8275 78.5249 92.2819 82.1976 88.4489 82.8734L21.8962 94.6085C18.0808 95.2812 14.4446 92.727 13.7833 88.9096L11.301 74.5793L9.81585 64.2151C9.65107 63.0651 9.77506 61.8923 10.1767 60.8022L11.5678 57.0262Z" fill="#91BFF8"/>
<rect x="23.1271" y="67.9204" width="56.1445" height="4.33685" transform="rotate(-9.04874 23.1271 67.9204)" fill="#090101"/>
<path d="M10.1069 66.605L20.5896 64.7567C23.8351 64.1844 26.9301 66.3515 27.5024 69.597C28.0746 72.8426 25.9075 75.9375 22.662 76.5098L12.1793 78.3582L10.1069 66.605Z" fill="#FBDA5A"/>
<path d="M90.4333 52.7051L78.7388 54.7672C75.6853 55.3056 73.6464 58.2175 74.1848 61.271C74.7232 64.3245 77.6351 66.3634 80.6886 65.825L92.3831 63.7629L90.4333 52.7051Z" fill="#FBDA5A"/>
<path d="M37.2123 65.6724L63.5007 61.455L65.085 71.3304C65.26 72.4211 64.5177 73.447 63.4271 73.622L41.0881 77.2058C39.9975 77.3808 38.9716 76.6385 38.7966 75.5479L37.2123 65.6724Z" fill="#FAD959"/>
<path d="M80.5807 100.821C80.5807 96.4027 84.1624 92.821 88.5807 92.821H110.528C114.946 92.821 118.528 96.4027 118.528 100.821V108H80.5807V100.821Z" fill="#F8885E"/>
<rect x="1.43323" y="103.663" width="124.684" height="4.33685" rx="1.5" fill="#6E6E74"/>
<g style="mix-blend-mode:multiply" opacity="0.26">
<path fill-rule="evenodd" clip-rule="evenodd" d="M14.6401 91.2558C15.6726 91.5561 16.7843 91.6287 17.9028 91.4246L81.3667 79.8472C85.1975 79.1483 87.639 75.4737 86.7998 71.6701L84.0726 59.3099L82.3807 51.6418C82.0972 50.3572 81.4558 49.1687 80.5299 48.2127L77.8365 45.4313C76.2455 43.7885 74.1268 42.8049 71.9145 42.6218L67.401 29.936C66.5184 27.4555 64.8915 25.4023 62.8453 23.9675C68.4737 23.18 73.9061 26.4579 75.8149 31.8437L79.0682 41.0231C81.3365 41.2464 83.4702 42.3273 84.9993 44.0982L88.1209 47.7135C88.931 48.6518 89.4775 49.7884 89.7044 51.0071L91.3748 59.9795L94.1152 74.6986C94.8275 78.5249 92.2819 82.1976 88.449 82.8734L21.8962 94.6085C18.9327 95.131 16.0773 93.7067 14.6401 91.2558Z" fill="black"/>
</g>
</svg>
