<svg width="128" height="128" viewBox="0 0 128 128" fill="none" xmlns="http://www.w3.org/2000/svg">
<path d="M39 97H53V113C53 116.866 49.866 120 46 120V120C42.134 120 39 116.866 39 113V97Z" fill="#F6EE86"/>
<path d="M65 97H79V113C79 116.866 75.866 120 72 120V120C68.134 120 65 116.866 65 113V97Z" fill="#F6EE86"/>
<path fill-rule="evenodd" clip-rule="evenodd" d="M79 105.392C76.8856 106.422 74.5103 107 72 107C69.4897 107 67.1144 106.422 65 105.392V97H79V105.392Z" fill="#CCC460"/>
<path fill-rule="evenodd" clip-rule="evenodd" d="M53 105.392C50.8856 106.422 48.5103 107 46 107C43.4897 107 41.1144 106.422 39 105.392V97H53V105.392Z" fill="#CCC460"/>
<path d="M67.4497 88.4911C57.0497 82.0911 72.4497 54.9911 83.4497 46.4911C88.6163 43.4911 97.4497 39.9911 107.45 47.4911C110.783 50.3244 116.55 58.4911 112.95 68.4911C108.45 80.9911 101.45 96.9911 83.4497 101.991C69.4497 105.491 69.4497 92.9911 70.4497 89.4911C69.2497 88.6911 67.9497 88.4911 67.4497 88.4911Z" fill="#78BEE4"/>
<path d="M13 57.5C30 56.5 50 53.5 48.5 25.5C67.3333 21.5 101.6 18.9 102 26.5C102.5 36 103.5 50.5 101.5 65.5C99.5 80.5 89.5 89 80.5 96.5C60.9 108.5 44.3333 104.5 38.5 101C-16 73 0.50001 55.5 13 57.5Z" fill="#A2DDFD"/>
<path d="M104 28.5C104 37.4136 102 45 102 60.5C97.0924 64.5024 53.8265 62 47 62C31.2599 62 48.5 45 48.5 26C48.5 15.5 59.7599 0 75.5 0C91.2401 0 104 12.7599 104 28.5Z" fill="#AD96D4"/>
<path d="M104 28.5C104 37.4136 102 45 102 60.5C97.0924 64.5024 53.8265 62 47 62C31.2599 62 48.5 45 48.5 26C48.5 15.5 59.7599 0 75.5 0C91.2401 0 104 12.7599 104 28.5Z" fill="#AD96D4"/>
<path fill-rule="evenodd" clip-rule="evenodd" d="M48.4632 31.7052C49.0737 29.3999 49.8666 27.1688 50.8256 25.0283C70.0147 21.3087 101.616 19.2033 102 26.5C102.035 27.1665 102.073 27.8576 102.111 28.5718C102.626 38.0371 103.36 51.5524 101.5 65.5C100.276 74.6815 96.0542 81.4277 90.8994 86.9999C66.6451 86.9456 47 67.267 47 43C47 41.6326 47.0624 40.2797 47.1844 38.9441C47.8301 36.7967 48.2676 34.3943 48.4632 31.7052Z" fill="#CDE9FA"/>
<path d="M104 28.5C104 37.4136 102 45 102 60.5C97.0924 64.5024 53.8265 62 47 62C31.2599 62 48.5 45 48.5 26C48.5 15.5 59.7599 0 75.5 0C91.2401 0 104 12.7599 104 28.5Z" fill="#AD96D4"/>
<path fill-rule="evenodd" clip-rule="evenodd" d="M102.061 55.8956C92.3671 57.3727 70.9792 56.628 59.0957 56.2143C55.61 56.0929 52.9421 56 51.6268 56C42.2617 56 44.5718 49.9818 47.9793 41.105C50.2988 35.0624 53.1268 27.6952 53.1268 20C53.1268 16.4285 54.4295 12.2786 56.7682 8.35692C51.5792 13.6508 48.5 20.5091 48.5 26C48.5 33.6952 45.672 41.0624 43.3525 47.105C39.945 55.9818 37.6348 62 47 62C48.3153 62 50.9832 62.0929 54.4689 62.2143C69.0747 62.7228 98.038 63.7312 102 60.5C102 58.8825 102.022 57.3512 102.061 55.8956Z" fill="#8F8BD5"/>
<path d="M98.036 31C94.311 31 93.8232 28.8333 94.045 27.75L95.3753 19.95C95.597 19.3 96.4396 18 98.036 18C104.422 18 112.5 25.5 114 31C113.471 33 101.761 31 98.036 31Z" fill="#F6EE86"/>
<ellipse cx="68.5" cy="24.5" rx="8.5" ry="6.5" fill="white"/>
<path d="M72 14L72 18" stroke="black" stroke-width="4" stroke-linecap="round"/>
<path d="M45.5 42C63.5 56.8 90.5 53.5 102.5 48.5L102 60.5C89.6 66.9 63.5 64.5 46 59L42 50L45.5 42Z" fill="#F6EE86"/>
<path d="M13.4497 87.4911C3.04965 81.0911 18.4497 53.9911 29.4497 45.4911C34.6163 42.4911 43.4497 38.9911 53.4497 46.4911C56.783 49.3244 62.5497 57.4911 58.9497 67.4911C54.4497 79.9911 47.4497 95.9911 29.4497 100.991C15.4497 104.491 15.4497 91.9911 16.4497 88.4911C15.2497 87.6911 13.9497 87.4911 13.4497 87.4911Z" fill="#B8E6FF"/>
</svg>
