<svg width="128" height="128" viewBox="0 0 128 128" fill="none" xmlns="http://www.w3.org/2000/svg">
<g clip-path="url(#clip0_60_12)">
<rect width="128" height="128" fill="white"/>
<path d="M23.6772 123.177C27.3276 123.177 32.3977 113.239 34.6285 108.575L22.4603 93.9729C19.8239 94.3785 13.3341 95.9198 8.46686 98.8402C2.38275 102.491 2.99116 102.491 6.64163 103.707C10.2921 104.924 14.551 103.707 14.551 106.75C14.551 109.792 5.42484 117.093 8.46686 118.309C14.7943 117.336 20.4323 115.064 22.4603 114.05C22.4603 116.281 22.4603 120.135 23.6772 123.177Z" fill="#C62430"/>
<path d="M62.9799 12.6003L115.96 65.5809L79.4709 102.07C64.8408 116.701 41.1205 116.701 26.4903 102.07V102.07C11.8601 87.4402 11.8601 63.72 26.4903 49.0898L62.9799 12.6003Z" fill="#E5646E"/>
<path fill-rule="evenodd" clip-rule="evenodd" d="M46.8312 112.538C58.349 114.444 70.5862 110.955 79.471 102.07L115.961 65.5809L109.164 58.7847L65.5795 102.369C60.2449 107.704 53.7016 111.094 46.8312 112.538Z" fill="#DA2F3C"/>
<path d="M72.4009 95.1069C69.5616 97.9461 60.8411 103.381 48.6729 102.408" stroke="#DA2F3C" stroke-width="4" stroke-linecap="round"/>
<ellipse cx="90.0376" cy="38.2218" rx="16.3478" ry="37.5875" transform="rotate(-44.678 90.0376 38.2218)" fill="#FFC6BD"/>
<ellipse cx="79.3899" cy="17.0366" rx="4.18426" ry="2.64919" transform="rotate(46.9517 79.3899 17.0366)" fill="#FFF7D7"/>
<ellipse cx="84.9064" cy="35.144" rx="7.20051" ry="4.55888" transform="rotate(46.9517 84.9064 35.144)" fill="#FFF7D7"/>
<ellipse cx="100.725" cy="54.6131" rx="4.03884" ry="2.55712" transform="rotate(46.9517 100.725 54.6131)" fill="#FFF7D7"/>
<path fill-rule="evenodd" clip-rule="evenodd" d="M109.759 36.2685C113.018 40.7863 115.469 45.265 116.979 49.3554C116.813 49.6133 116.616 49.85 116.389 50.0622C114.067 52.2311 109.408 51.0163 105.982 47.3489C102.556 43.6815 101.662 38.9503 103.983 36.7814C105.345 35.5096 107.51 35.4012 109.759 36.2685Z" fill="#FFF7D7"/>
</g>
<defs>
<clipPath id="clip0_60_12">
<rect width="128" height="128" fill="white"/>
</clipPath>
</defs>
</svg>
